<?xml version="1.0" encoding="utf-8"?>
<!-- Generator: Adobe Illustrator 27.5.0, SVG Export Plug-In . SVG Version: 6.00 Build 0)  -->
<svg version="1.1" id="_x3C_Layer_x3E_" xmlns="http://www.w3.org/2000/svg" xmlns:xlink="http://www.w3.org/1999/xlink" x="0px"
	 y="0px" viewBox="0 0 3000 2000" style="enable-background:new 0 0 3000 2000;" xml:space="preserve">
<rect style="fill:#FFFFFF;" width="3000" height="2000"/>
<g>
	<defs>
		<path id="SVGID_1_" d="M2757.262,1620.761c-33.25,62.653-89.315,99.352-134.979,121.227
			c-79.316,37.462-180.925,56.885-283.148,61.876c-186.828,11.141-369.369-14.039-519.992-32.55
			c-108.179-13.332-216.078-25.818-323.557-28.203c-94.648-1.643-241.593,5.878-480.003,19.642
			c-82.645,4.568-268.14,16.983-445.628,8.56c-73.012-3.411-227.225-13.893-285.954-57.108
			c-183.527-134.278,1.965-378.418,41.953-536.549c9.261-36.482,11.646-74.787,1.404-117.298
			c-31.257-130.234-40.17-194.736-43.497-216.924c-28.203-199.241-36.2-365.089,104.813-503.153
			c181.141-177.355,668.02-190.262,1077.868-59.492c483.091,154.061,683.876-107.34,945.276,31.43
			c383.89,203.872,16.556,414.62,207.379,649.921c72.401,89.376,119.966,186.049,146.906,279.498
			C2808.756,1389.385,2804.826,1531.663,2757.262,1620.761z"/>
	</defs>
	<clipPath id="SVGID_00000146493569543508566090000014954398451319923093_">
		<use xlink:href="#SVGID_1_"  style="overflow:visible;"/>
	</clipPath>
	<g style="opacity:0.5;clip-path:url(#SVGID_00000146493569543508566090000014954398451319923093_);">
		<path style="fill:#8BBAFF;" d="M2757.262,1620.761c-33.25,62.653-89.315,99.352-134.979,121.227
			c-79.316,37.462-180.925,56.885-283.148,61.876c-186.828,11.141-369.369-14.039-519.992-32.55
			c-108.179-13.332-216.078-25.818-323.557-28.203c-94.648-1.643-241.593,5.878-480.003,19.642
			c-82.645,4.568-268.14,16.983-445.628,8.56c-73.012-3.411-227.225-13.893-285.954-57.108
			c-183.527-134.278,1.965-378.418,41.953-536.549c9.261-36.482,11.646-74.787,1.404-117.298
			c-31.257-130.234-40.17-194.736-43.497-216.924c-28.203-199.241-36.2-365.089,104.813-503.153
			c181.141-177.355,668.02-190.262,1077.868-59.492c483.091,154.061,683.876-107.34,945.276,31.43
			c383.89,203.872,16.556,414.62,207.379,649.921c72.401,89.376,119.966,186.049,146.906,279.498
			C2808.756,1389.385,2804.826,1531.663,2757.262,1620.761z"/>
	</g>
	<g style="clip-path:url(#SVGID_00000146493569543508566090000014954398451319923093_);">
		<g>
			<path style="fill:#89B4FD;" d="M706.891,1766.554c0.195,0.004,0.394-0.01,0.594-0.046c1.608-0.29,2.677-1.829,2.387-3.436
				c-75.713-420.167-154.061-719.649-220.612-843.28c-1.478-2.746-2.545-4.727-2.926-5.713c-0.59-1.526-2.308-2.279-3.826-1.693
				c-1.525,0.59-2.282,2.303-1.693,3.827c0.514,1.329,1.54,3.233,3.236,6.383c66.262,123.096,144.392,421.956,219.998,841.524
				C704.303,1765.528,705.514,1766.524,706.891,1766.554z"/>
		</g>
		<g>
			<path style="fill:#89B4FD;" d="M436.113,892.552c7.965,13.932,52.747,42.951,56.724,40.678c3.976-2.273,1.692-55.588-6.272-69.52
				c-7.965-13.932-25.715-18.769-39.646-10.805C432.986,860.87,428.149,878.62,436.113,892.552z"/>
		</g>
		<g>
			<path style="fill:#89B4FD;" d="M523.323,942.108c-6.478,15.086-2.609,69.542,1.697,71.391
				c4.306,1.849,46.455-32.848,52.932-47.934c6.478-15.085-0.5-32.566-15.587-39.044C547.28,920.044,529.8,927.022,523.323,942.108z
				"/>
		</g>
		<g>
			<path style="fill:#89B4FD;" d="M456.06,1028.882c16.156,2.914,68.342-13.119,69.174-17.73
				c0.832-4.611-42.466-37.865-58.622-40.778c-16.157-2.914-31.617,7.822-34.53,23.978
				C429.168,1010.509,439.903,1025.969,456.06,1028.882z"/>
		</g>
		<g>
			<path style="fill:#89B4FD;" d="M632.041,1227.28c-13.539,24.003-16.933,115.576-10.082,119.441
				c6.851,3.864,83.465-46.412,97.003-70.414c13.538-24.002,5.055-54.435-18.947-67.974
				C676.012,1194.795,645.579,1203.278,632.041,1227.28z"/>
		</g>
		<g>
			<path style="fill:#89B4FD;" d="M504.098,1359.918c26.434,7.785,116.42-9.528,118.643-17.073
				c2.222-7.545-64.015-70.869-90.449-78.655c-26.435-7.786-54.176,7.333-61.961,33.767
				C462.546,1324.391,477.663,1352.132,504.098,1359.918z"/>
		</g>
		<g>
			<path style="fill:#89B4FD;" d="M691.61,1336.993c-22.626,25.005-51.343,133.405-44.206,139.863
				c7.137,6.458,112.134-32.921,134.76-57.927c22.626-25.006,20.697-63.619-4.309-86.245
				C752.85,1310.058,714.236,1311.987,691.61,1336.993z"/>
		</g>
		<g>
			<path style="fill:#89B4FD;" d="M510.658,1509.05c33.158,6.149,140.513-26.256,142.268-35.72
				c1.755-9.464-86.844-78.205-120.002-84.354c-33.156-6.148-65.02,15.747-71.17,48.904
				C455.606,1471.038,477.501,1502.901,510.658,1509.05z"/>
		</g>
		<g>
			<path style="fill:#89B4FD;" d="M720.527,1474.489c-22.626,25.005-51.344,133.404-44.207,139.863
				c7.137,6.458,112.134-32.921,134.761-57.927c22.625-25.006,20.696-63.619-4.309-86.245
				C781.766,1447.554,743.153,1449.483,720.527,1474.489z"/>
		</g>
		<g>
			<path style="fill:#89B4FD;" d="M539.575,1646.546c33.157,6.149,140.512-26.256,142.267-35.72
				c1.755-9.463-86.844-78.205-120.001-84.353c-33.157-6.149-65.021,15.746-71.169,48.904
				C484.522,1608.534,506.417,1640.398,539.575,1646.546z"/>
		</g>
		<g>
			<path style="fill:#89B4FD;" d="M798.088,1651.977c-30.445,14.503-98.288,103.791-94.148,112.481
				c4.139,8.69,116.221,12.272,146.666-2.23c30.444-14.503,43.369-50.94,28.866-81.385
				C864.97,1650.399,828.533,1637.475,798.088,1651.977z"/>
		</g>
		<g>
			<path style="fill:#89B4FD;" d="M563.569,1782.016c32.129,10.245,142.693-8.483,145.617-17.653
				c2.924-9.171-76.386-88.449-108.514-98.694c-32.129-10.246-66.479,7.494-76.724,39.623
				C513.701,1737.42,531.441,1771.771,563.569,1782.016z"/>
		</g>
		<g>
			<path style="fill:#89B4FD;" d="M556.763,1030.852c-6.582,15.328-2.65,70.656,1.724,72.535c4.376,1.878,47.2-33.375,53.781-48.702
				c6.582-15.327-0.509-33.088-15.836-39.669C581.104,1008.434,563.344,1015.524,556.763,1030.852z"/>
		</g>
		<g>
			<path style="fill:#89B4FD;" d="M490.453,1120.271c16.416,2.96,69.438-13.329,70.283-18.015
				c0.844-4.685-43.146-38.471-59.562-41.432c-16.415-2.961-32.123,7.947-35.083,24.362
				C463.13,1101.603,474.038,1117.31,490.453,1120.271z"/>
		</g>
		<g>
			<path style="fill:#89B4FD;" d="M596.974,1114.313c-11.105,20.935-11.987,99.734-6.011,102.903
				c5.975,3.17,70.719-41.755,81.824-62.69c11.104-20.935,3.134-46.909-17.8-58.013
				C634.05,1085.408,608.078,1093.378,596.974,1114.313z"/>
		</g>
		<g>
			<path style="fill:#89B4FD;" d="M492.103,1240.23c23.322,4.206,98.65-18.936,99.85-25.593c1.2-6.657-61.297-54.656-84.619-58.862
				c-23.322-4.206-45.637,11.29-49.844,34.611C453.285,1213.709,468.781,1236.024,492.103,1240.23z"/>
		</g>
	</g>
	<g style="opacity:0.5;clip-path:url(#SVGID_00000146493569543508566090000014954398451319923093_);">
		<g>
			<path style="fill:#8BBAFF;" d="M1694.494,1134.097c-0.766,1.022-2.118,2.406-4.343,4.684c-2.267,2.331-4.578,4.759-6.92,7.292
				c-13.69,14.797-28.604,33.022-44.647,54.494c-1.48,1.969-2.959,3.971-4.45,6.004c-13.264,18.002-27.263,38.153-41.964,60.381
				c0,0.01-0.011,0.01-0.011,0.01c-2.576,3.918-5.195,7.899-7.835,11.955c-15.287,23.484-31.298,49.139-47.979,76.849
				c-2.342,3.896-4.705,7.824-7.069,11.806c-16.564,27.785-33.767,57.56-51.567,89.23v0.011c-2.267,4.045-4.556,8.123-6.855,12.232
				c-16.479,29.541-33.448,60.658-50.864,93.307v0.011c-1.064,2.001-2.14,3.992-3.204,6.004c0,0.011,0,0.011-0.011,0.011
				c-1.096,2.087-2.214,4.162-3.321,6.259v0.011c-0.053,0.107-0.117,0.202-0.171,0.309c-16.596,31.276-33.597,63.915-50.96,97.853
				c-1.661,3.257-3.332,6.526-5.014,9.815c0,0.011-0.01,0.032-0.021,0.043c-0.373,0.734-0.756,1.48-1.128,2.214
				c0,0.011,0,0.011,0,0.011c-0.277,0.532-0.543,1.065-0.809,1.597c-11.167,21.919-22.483,44.359-33.927,67.322
				c-2.023,0.096-4.045,0.213-6.068,0.32c11.859-23.782,23.548-47,35.087-69.664c0.447-0.873,0.894-1.746,1.331-2.619
				c0.564-1.107,1.128-2.204,1.693-3.3v-0.011c2.278-4.46,4.546-8.889,6.803-13.296c16.319-31.84,32.319-62.531,47.968-92.019
				c3.566-6.739,7.122-13.402,10.656-20.003c0,0,0-0.011,0.011-0.021c15.84-29.616,31.308-57.943,46.372-84.972
				c4.077-7.292,8.112-14.488,12.115-21.589c0.011,0,0.011-0.011,0.011-0.021c16.266-28.796,32.011-56.006,47.234-81.544
				c0.447-0.734,0.884-1.469,1.32-2.203c0-0.011,0.011-0.011,0.011-0.021c0.17-0.277,0.33-0.564,0.5-0.841
				c0-0.011,0.01-0.011,0.01-0.021c2.459-4.109,4.897-8.154,7.314-12.168l0.011-0.01c16.224-26.891,31.819-51.822,46.723-74.699
				c0.021-0.021,0.032-0.043,0.032-0.053c0.692-1.054,1.384-2.108,2.065-3.151c2.512-3.822,4.982-7.59,7.452-11.295
				c0.011-0.011,0.011-0.021,0.021-0.032c13.669-20.578,26.731-39.356,39.154-56.261c4.609-6.281,9.113-12.274,13.562-18.033
				c0,0,0-0.011,0.011-0.021c13.158-17.107,25.517-31.904,37.014-44.296c2.214-2.374,4.386-4.663,6.526-6.866
				c1.948-1.991,3.353-3.428,3.918-4.184c0.883-1.16,2.544-1.394,3.694-0.511
				C1695.143,1131.276,1695.366,1132.937,1694.494,1134.097z"/>
		</g>
		<g>
			<path style="fill:#8BBAFF;" d="M1738.663,1124.748c-10.252,10.006-55.806,23.937-58.662,21.011
				c-2.856-2.926,12.175-48.129,22.426-58.135c10.252-10.006,26.674-9.807,36.68,0.445
				C1749.114,1098.32,1748.914,1114.742,1738.663,1124.748z"/>
		</g>
		<g>
			<path style="fill:#8BBAFF;" d="M1651.657,1145.906c1.862,14.537-14.808,60.331-18.958,60.863
				c-4.15,0.531-31.822-39.584-33.684-54.121c-1.862-14.536,8.413-27.83,22.95-29.692
				C1636.502,1121.094,1649.796,1131.369,1651.657,1145.906z"/>
		</g>
		<g>
			<path style="fill:#8BBAFF;" d="M1688.12,1236.879c-14.582-1.459-55.446-28.014-55.03-32.177
				c0.416-4.162,45.734-22.091,60.316-20.632c14.583,1.459,25.221,14.464,23.761,29.047
				C1715.707,1227.7,1702.703,1238.339,1688.12,1236.879z"/>
		</g>
		<g>
			<path style="fill:#8BBAFF;" d="M1488.43,1364.034c5.737,23.922-13.799,103.357-20.626,104.994
				c-6.828,1.637-60.265-60.299-66.001-84.22c-5.736-23.921,9.005-47.964,32.927-53.701
				C1458.65,1325.371,1482.693,1340.113,1488.43,1364.034z"/>
		</g>
		<g>
			<path style="fill:#8BBAFF;" d="M1565.735,1509.249c-24.599,0.202-97.595-36.718-97.652-43.74
				c-0.058-7.021,72.321-45.138,96.919-45.341c24.599-0.202,44.704,19.575,44.907,44.174
				C1610.111,1488.941,1590.334,1509.047,1565.735,1509.249z"/>
		</g>
		<g>
			<path style="fill:#8BBAFF;" d="M1410.402,1443.604c13.291,27.01,11.368,127.096,3.658,130.89
				c-7.709,3.794-88.181-55.748-101.472-82.758c-13.291-27.01-2.17-59.681,24.84-72.973
				C1364.439,1405.472,1397.111,1416.593,1410.402,1443.604z"/>
		</g>
		<g>
			<path style="fill:#8BBAFF;" d="M1523.545,1635.651c-29.969-2.851-114.174-56.983-113.36-65.536
				c0.814-8.553,93.715-45.839,123.684-42.988c29.967,2.851,51.95,29.456,49.1,59.424
				C1580.118,1616.518,1553.513,1638.501,1523.545,1635.651z"/>
		</g>
		<g>
			<path style="fill:#8BBAFF;" d="M1351.875,1554.536c13.291,27.01,11.368,127.096,3.659,130.89
				c-7.709,3.793-88.181-55.748-101.473-82.758c-13.29-27.01-2.169-59.681,24.842-72.973
				C1305.912,1516.404,1338.583,1527.526,1351.875,1554.536z"/>
		</g>
		<g>
			<path style="fill:#8BBAFF;" d="M1465.017,1746.583c-29.968-2.85-114.173-56.983-113.359-65.537
				c0.814-8.553,93.715-45.838,123.683-42.988c29.968,2.851,51.951,29.456,49.1,59.424
				C1521.591,1727.45,1494.986,1749.434,1465.017,1746.583z"/>
		</g>
		<path style="fill:#8BBAFF;" d="M1282.195,1755.997c-13.189-27.367-31.439-60.218-40.409-68.124
			c-22.579-19.918-57.017-17.756-76.924,4.822c-17.767,20.141-17.969,49.725-1.767,70.005c-0.001,0.018-0.001,0.034-0.002,0.052
			C1205.637,1760.295,1245.253,1758.039,1282.195,1755.997z"/>
		<g>
			<path style="fill:#8BBAFF;" d="M1419.415,1748.892c-7.846,0.362-15.702,0.724-23.569,1.107c4.599-1.182,8.676-1.874,12.04-1.98
				C1411.825,1747.902,1415.679,1748.2,1419.415,1748.892z"/>
		</g>
		<g>
			<path style="fill:#8BBAFF;" d="M1601.198,1213.882c1.892,14.77-15.046,61.298-19.261,61.838
				c-4.216,0.54-32.332-40.219-34.224-54.988c-1.892-14.77,8.548-28.276,23.318-30.168
				C1585.8,1188.673,1599.307,1199.113,1601.198,1213.882z"/>
		</g>
		<g>
			<path style="fill:#8BBAFF;" d="M1636.195,1306.892c-14.816-1.483-56.335-28.464-55.912-32.692
				c0.424-4.229,46.465-22.445,61.282-20.962c14.816,1.483,25.625,14.696,24.142,29.512
				C1664.225,1297.566,1651.011,1308.374,1636.195,1306.892z"/>
		</g>
		<g>
			<path style="fill:#8BBAFF;" d="M1546.223,1275.665c4.4,20.692-14.16,88.546-20.067,89.801
				c-5.906,1.256-50.466-53.177-54.866-73.869c-4.399-20.692,8.809-41.032,29.5-45.432
				C1521.484,1241.765,1541.824,1254.973,1546.223,1275.665z"/>
		</g>
		<g>
			<path style="fill:#8BBAFF;" d="M1605.372,1409.455c-21.05-2.107-80.035-40.437-79.434-46.446
				c0.602-6.008,66.014-31.888,87.063-29.781c21.049,2.107,36.406,20.879,34.299,41.928
				C1645.193,1396.207,1626.422,1411.563,1605.372,1409.455z"/>
		</g>
	</g>
	<g style="clip-path:url(#SVGID_00000146493569543508566090000014954398451319923093_);">
		<path style="fill:#7798F8;" d="M1012.047,1856.057c0.001,0.027,0.004,0.053,0.005,0.08c228.7-12.56,381.884-18.981,487.911-17.141
			c1.315,0.029,2.63,0.079,3.945,0.11c90.201-112.74,181.149-290.509,216.906-397.834
			C1004.499,1477.536,1011.961,1853.964,1012.047,1856.057z"/>
		<path style="fill:#89B4FD;" d="M1720.596,1441.284c-716.094,36.33-708.635,412.679-708.549,414.773
			c0.001,0.027,0.004,0.053,0.005,0.08c15.418-0.847,30.481-1.665,45.221-2.455c395.794-245.905,211.821-131.532,663.319-412.395
			L1720.596,1441.284z"/>
		<g>
			<path style="fill:#080435;" d="M1722.845,1441.45l-2.668,1.66l-350.367,217.96l-3.394,2.105l-305.871,190.272
				c-0.919,0.044-1.823,0.089-2.742,0.148c-0.934,0.044-1.853,0.089-2.786,0.148l310.48-193.133l352.309-219.176l1.542-0.963
				l2.075-1.29c0.637-0.385,1.453-0.193,1.853,0.43C1723.66,1440.235,1723.468,1441.065,1722.845,1441.45z"/>
		</g>
		<g>
			<path style="fill:#080435;" d="M1365.696,1663.028c-0.602-0.216-0.979-0.844-0.862-1.495c0.13-0.727,0.827-1.21,1.554-1.078
				l219.541,39.6c0.713,0.124,1.207,0.827,1.077,1.553c-0.13,0.727-0.827,1.209-1.553,1.078l-219.541-39.601
				C1365.838,1663.073,1365.765,1663.053,1365.696,1663.028z"/>
		</g>
	</g>
	<g style="clip-path:url(#SVGID_00000146493569543508566090000014954398451319923093_);">
		<path style="fill:#FFA089;" d="M2328.683,915.113c10.226,139.848,20.157,330.646,14.563,359.813
			c-0.543,2.831,141.087,404.329,154.782,411.303c-23.975,21.122-173.552,61.859-198.836,83.692l-53.187-21.03
			c0,0-100.434-252.334-141.649-286.45c-78.323-64.842-141.347-124.275-155.934-157.882
			c-44.722-103.033-86.318-412.647-40.932-406.688c29.729,3.896,36.851,30.846,49.077,75.907
			c19.682,72.531,56.55,157.801,76.304,136.108c30.88-33.938,12.869-169.101-17.025-206.104
			c-15.857-19.607-89.189-105.172-118.679-120.406c-52.378-27.035-92.2-49.891-75.7-77.89c4.219-7.141,58.597,9.864,82.454,18.639
			c52.938,19.474,113.628,47.962,119.017,56.684c0,0-27.096-49.962-43.896-63.338c-39.532-31.505-67.072-66.099-49.424-81.298
			c11.173-9.613,76.85,16.086,154.27,94.531c77.397,78.443,81.755,101.18,84.017,96.279c0.889-1.908-15.83-39.464-37.944-80.091
			c-14.623-26.877-27.358-55.689-44.42-79.571c-20.938-29.298-21.426-69.013-4.834-77.395
			c11.419-5.776,145.871,197.883,161.574,219.246c0,0-34.516-99.902-3.591-106.595
			C2249.069,700.337,2324.072,852.122,2328.683,915.113z"/>
		<path style="fill:#FF6760;" d="M2709.503,1792.573c-41.957,13.633,0,0-45.586,13.965c-30.552,9.356-61.877,18.773-93.915,28.237
			c-73.752,21.751-208.434,61.97-288.844,83.78c-31.935-61.702-44.768-189.862-82.013-247.32
			c-14.785-22.845-24.408-37.41-24.408-37.41s-119.271-24.509-127.561-106.509c-5.943-58.691,27.517-78.345,83.257-65.976
			l0.015-0.004c20.544,4.567,40.338-4.33,62.887-25.422c79.179-74.094,79.619-15.101,144.305-27.421
			c6.824-1.304,12.717-4.008,18.098-7.519c24.869-16.201,39.175-49.57,87.58-40.61c67.528,12.517,20.146,168.497,20.146,168.497
			s50.062,62.418,66.524,82.969C2570.625,1662.559,2709.503,1792.573,2709.503,1792.573z"/>
		<g>
			<path style="fill:#FFFFFF;" d="M2203.876,1617.978c1.054-7.223,7.81-12.218,15.09-11.157c7.279,1.061,12.327,7.775,11.273,14.997
				c-1.054,7.222-7.809,12.217-15.089,11.157C2207.87,1631.914,2202.823,1625.2,2203.876,1617.978z"/>
			<path style="fill:#FFFFFF;" d="M2466.268,1620.968c1.054-7.222,7.809-12.217,15.089-11.157
				c7.279,1.059,12.326,7.775,11.273,14.997c-1.054,7.222-7.809,12.217-15.089,11.157
				C2470.261,1634.904,2465.214,1628.19,2466.268,1620.968z"/>
			<path style="fill:#FFFFFF;" d="M2389.867,1570.281c1.054-7.222,7.809-12.218,15.089-11.158s12.327,7.775,11.273,14.997
				c-1.053,7.222-7.809,12.217-15.089,11.157C2393.861,1584.218,2388.813,1577.503,2389.867,1570.281z"/>
			<path style="fill:#FFFFFF;" d="M2391.578,1679.226c1.054-7.221,7.809-12.217,15.089-11.157s12.327,7.775,11.273,14.997
				c-1.054,7.223-7.809,12.217-15.088,11.156C2395.572,1693.164,2390.525,1686.449,2391.578,1679.226z"/>
			<path style="fill:#FFFFFF;" d="M2315.096,1736.288c1.053-7.222,7.808-12.217,15.087-11.158
				c7.28,1.061,12.327,7.776,11.274,14.997c-1.054,7.223-7.809,12.219-15.089,11.158S2314.042,1743.51,2315.096,1736.288z"/>
			<path style="fill:#FFFFFF;" d="M2478.415,1722.62c1.081-7.409,8.01-12.533,15.478-11.445c7.467,1.088,12.645,7.975,11.564,15.384
				c-1.081,7.408-8.01,12.533-15.478,11.445C2482.51,1736.916,2477.334,1730.028,2478.415,1722.62z"/>
			<path style="fill:#FFFFFF;" d="M2312.108,1646.19c1.054-7.221,7.809-12.217,15.089-11.157s12.327,7.775,11.274,14.997
				c-1.054,7.222-7.809,12.217-15.089,11.157C2316.102,1660.127,2311.055,1653.412,2312.108,1646.19z"/>
			<path style="fill:#FFFFFF;" d="M2288.282,1553.815c1.054-7.222,7.809-12.217,15.089-11.157
				c7.279,1.059,12.327,7.775,11.273,14.996c-1.054,7.223-7.809,12.218-15.089,11.158
				C2292.276,1567.751,2287.229,1561.037,2288.282,1553.815z"/>
			<path style="fill:#FFFFFF;" d="M2273.701,1469.224c1.054-7.222,7.809-12.217,15.089-11.158
				c7.28,1.061,12.327,7.776,11.273,14.998c-1.054,7.221-7.809,12.217-15.089,11.157
				C2277.694,1483.161,2272.647,1476.447,2273.701,1469.224z"/>
			<path style="fill:#FFFFFF;" d="M2101.621,1536.724c1.053-7.222,7.809-12.217,15.089-11.157
				c7.279,1.061,12.327,7.775,11.273,14.997c-1.054,7.223-7.809,12.217-15.089,11.157
				C2105.614,1550.66,2100.567,1543.946,2101.621,1536.724z"/>
			<path style="fill:#FFFFFF;" d="M2202.645,1534.157c1.053-7.222,7.809-12.217,15.088-11.156c7.28,1.06,12.328,7.774,11.274,14.997
				c-1.054,7.221-7.809,12.217-15.089,11.157S2201.591,1541.38,2202.645,1534.157z"/>
			<path style="fill:#FFFFFF;" d="M2366.387,1500.581c1.054-7.222,7.809-12.217,15.089-11.157
				c7.28,1.059,12.327,7.775,11.273,14.997c-1.054,7.221-7.809,12.217-15.089,11.157
				C2370.381,1514.518,2365.333,1507.804,2366.387,1500.581z"/>
			<path style="fill:#FFFFFF;" d="M2404.975,1420.621c1.054-7.223,7.809-12.219,15.089-11.158
				c7.28,1.061,12.327,7.775,11.273,14.997c-1.053,7.222-7.809,12.217-15.089,11.158
				C2408.968,1434.558,2403.92,1427.843,2404.975,1420.621z"/>
		</g>
	</g>
	<g style="clip-path:url(#SVGID_00000146493569543508566090000014954398451319923093_);">
		<g>
			<path style="fill:#DB7665;" d="M1263.608,1323.562c0,0-29.579-62.563-25.276-85.88c4.302-23.317,25.591-89.303,21.369-114.291
				c-1.315-7.779-15.744-67.501-30.24-76.039c-9.807-5.776-32.511,15.935-25.75,46.447c11.751,53.035-5.22,83.525-14.606,105.598
				c-16.01,37.649-22.432,60.186-22.315,41.662c0,0,8.722-56.8,6.795-81.734c-0.52-6.737-13.711-58.719-27.793-63.902
				c-7.618-2.805-32.177,9.256-24.164,56.905c5.267,31.315-12.823,51.179-26.296,72.283c-11.661,18.266-67.162,63.755-67.162,63.755
				l71.291,57.938L1263.608,1323.562z"/>
			<path style="fill:#EA8F7D;" d="M1313.777,1224.559c0,0,37.454-96.336,41.308-136.266c1.545-16.017,1.658-69.003-11.174-78.607
				c-21.181-15.852-47.22,21.362-46.457,70.006c0.756,48.267-47.455,84.564-71.103,115.657
				c-58.789,77.304-94.224,123.83-94.224,123.83L1313.777,1224.559z"/>
			<path style="fill:#F9A58F;" d="M1446.307,1132.528c-3.53,8.812-6.43,15.495-7.908,18.286c-1.622,3.065-5.405,9.385-10.578,17.735
				c-22.4,36.174-70.883,110.588-82.971,124.616c-36.594,42.539-192.378,168.259-221.982,189.678
				c-50.136,36.285-184.779,40.752-296.525,55.828c-7.476,1.004-14.932,2.117-22.377,3.331h-0.033
				c-40.896,6.661-81.228,16.323-120.646,28.94c-12.496,3.971-24.881,8.251-37.179,12.828c-5.537,2.073-11.073,4.191-16.567,6.386
				c-54.724-63.803-97.198-125.157-130.196-184.14c-4.159-24.452-7.82-48.108-10.963-71.049c16.41-4.026,31.873-7.885,45.902-11.492
				h0.011c11.294-2.923,21.672-5.67,30.859-8.184h0.012c14.834-4.091,26.569-7.588,34.124-10.291
				c19.344-6.915,49.629-13.334,74.688-27.153l0.022-0.01c0.013-0.012,0.023-0.012,0.033-0.012l0.022-0.011
				c16.951-9.351,31.478-22.08,38.646-40.653c2.228-5.756,5.57-12.043,9.893-18.727c0.541-0.839,1.093-1.676,1.655-2.526
				c0.926-1.378,1.885-2.78,2.9-4.191c0.539-0.762,1.091-1.521,1.643-2.294c1.677-2.295,3.464-4.644,5.327-7.015
				c0.276-0.331,0.541-0.673,0.806-1.014c0.727-0.905,1.455-1.82,2.206-2.736c0.748-0.914,1.51-1.841,2.282-2.767
				c0.65-0.772,1.301-1.555,1.974-2.339c6.473-7.621,13.774-15.517,21.704-23.558c0.463-0.485,0.937-0.959,1.424-1.444h0.01
				c7.247-7.292,15.022-14.69,23.183-22.113c1.224-1.114,2.46-2.227,3.694-3.342c1.346-1.202,2.703-2.415,4.07-3.617
				c1.313-1.158,2.626-2.317,3.961-3.474c0.044-0.045,0.088-0.09,0.131-0.122c1.279-1.115,2.57-2.228,3.872-3.352
				c1.765-1.512,3.54-3.022,5.326-4.545c1.026-0.872,2.063-1.743,3.111-2.613c1.565-1.313,3.133-2.615,4.72-3.927
				c4.742-3.904,9.551-7.798,14.415-11.646c1.621-1.279,3.253-2.559,4.886-3.828c1.632-1.268,3.264-2.536,4.908-3.805
				c0.01-0.011,0.01,0,0.01,0c1.644-1.268,3.287-2.525,4.942-3.771c3.264-2.482,6.541-4.93,9.838-7.346
				c1.059-0.784,2.128-1.566,3.199-2.349c3.971-2.901,7.94-5.746,11.922-8.547c1.555-1.092,3.111-2.174,4.654-3.254
				c4.665-3.232,9.32-6.397,13.952-9.475c0.949-0.628,1.896-1.256,2.857-1.885c2.845-1.877,5.69-3.707,8.513-5.515
				c0.685-0.442,1.368-0.871,2.052-1.335c2.052-1.323,4.114-2.702,6.177-4.136c0.682-0.463,1.367-0.937,2.061-1.422
				c0.685-0.462,1.368-0.948,2.053-1.444c2.744-1.941,5.491-3.949,8.216-5.99c1.368-1.013,2.724-2.05,4.081-3.098
				c0.672-0.519,1.356-1.048,2.04-1.567c1.344-1.048,2.69-2.107,4.025-3.187c2.857-2.273,5.68-4.577,8.47-6.904
				c0.829-0.684,1.644-1.367,2.46-2.062c0.982-0.816,1.953-1.644,2.922-2.47c1.292-1.115,2.582-2.217,3.85-3.321
				c4.456-3.882,8.802-7.775,12.982-11.635c0.892-0.817,1.775-1.644,2.657-2.46c1.467-1.367,2.923-2.725,4.346-4.081
				c0.739-0.704,1.479-1.401,2.206-2.106c0.01,0,0.01,0,0.01,0c2.626-2.514,5.173-4.985,7.611-7.39
				c1.036-1.026,2.062-2.04,3.066-3.044c2.018-2.007,3.959-3.97,5.813-5.867c0.926-0.949,1.83-1.875,2.712-2.791
				c3.331-3.452,6.364-6.661,9.033-9.562c0.331-0.364,0.662-0.727,0.992-1.081c0.331-0.353,0.651-0.694,0.949-1.035
				c0.319-0.355,0.618-0.686,0.927-1.027c0.308-0.331,0.606-0.662,0.882-0.982c0.541-0.595,1.058-1.179,1.566-1.742
				c0.574-0.64,1.115-1.258,1.632-1.854c1.223-1.412,2.747-3.263,4.51-5.481c0.562-0.695,1.148-1.434,1.765-2.206
				c0.938-1.202,1.941-2.47,2.989-3.816c0.342-0.452,0.706-0.904,1.059-1.367c5.393-6.948,11.955-15.484,18.881-24.198
				c0.915-1.158,1.853-2.327,2.78-3.485c1.874-2.338,3.76-4.676,5.646-6.97c0.641-0.772,1.268-1.533,1.898-2.305
				c0.627-0.761,1.256-1.523,1.896-2.272c0.629-0.75,1.247-1.5,1.874-2.239c0.937-1.113,1.875-2.217,2.813-3.298
				c0.465-0.54,0.937-1.081,1.402-1.61c3.254-3.739,6.43-7.246,9.462-10.389c0.442-0.442,0.873-0.883,1.301-1.324
				c0.431-0.441,0.849-0.86,1.269-1.268c0.419-0.419,0.838-0.827,1.247-1.225c0.826-0.805,1.644-1.577,2.437-2.293
				c0.794-0.728,1.567-1.412,2.326-2.063c0.376-0.331,0.751-0.64,1.126-0.938c1.389-1.136,2.702-2.129,3.936-2.923
				c0.199-0.132,0.409-0.264,0.606-0.386c0.199-0.133,0.399-0.254,0.597-0.364c1.268-0.728,2.425-1.257,3.473-1.555
				c0.232-0.066,0.476-0.11,0.717-0.154c0.243-0.033,0.497-0.044,0.762-0.044c0.32,0,0.661,0.022,1.003,0.076
				c0.199,0.023,0.398,0.055,0.596,0.1c0.156,0.033,0.31,0.077,0.475,0.121c0.099,0.023,0.197,0.044,0.297,0.089
				c0.132,0.033,0.265,0.066,0.397,0.121c1.269,0.419,2.615,1.092,4.026,1.985c0.21,0.122,0.42,0.264,0.629,0.408
				c0.418,0.276,0.849,0.573,1.279,0.893c0.21,0.155,0.43,0.32,0.639,0.485c0.651,0.497,1.313,1.026,1.974,1.6
				c0.442,0.375,0.883,0.772,1.324,1.18c0.44,0.407,0.882,0.826,1.323,1.257l0.662,0.662c0.44,0.441,0.882,0.894,1.335,1.357
				c1.863,1.975,3.716,4.158,5.469,6.441c0.31,0.408,0.618,0.816,0.927,1.224c1.621,2.173,3.155,4.434,4.533,6.705
				c0.353,0.563,0.683,1.137,1.004,1.699c0.662,1.125,1.268,2.261,1.832,3.375c0.142,0.276,0.286,0.563,0.417,0.839
				c0.816,1.676,1.523,3.32,2.085,4.908c0.176,0.507,0.353,1.014,0.506,1.51c0.156,0.508,0.3,1.016,0.421,1.512
				c0.066,0.242,0.121,0.484,0.176,0.727c0.11,0.485,0.198,0.96,0.276,1.422c0.551,3.452,0.771,6.993,0.683,10.633
				c0,0.297-0.011,0.595-0.022,0.893c-0.01,0.385-0.033,0.771-0.055,1.157v0.065c-0.022,0.441-0.055,0.883-0.088,1.325
				c-0.033,0.364-0.055,0.727-0.099,1.103c-0.189,2.072-0.475,4.18-0.861,6.308c-0.076,0.497-0.176,0.992-0.276,1.489
				c-0.1,0.529-0.21,1.068-0.331,1.599c-0.111,0.541-0.232,1.07-0.364,1.61c-0.628,2.702-1.411,5.459-2.337,8.261
				c-0.176,0.563-0.364,1.135-0.563,1.698c-0.386,1.136-0.794,2.282-1.236,3.441c-1.445,3.806-3.12,7.733-5.039,11.768
				c-0.255,0.552-0.519,1.093-0.784,1.644c-0.806,1.666-1.644,3.341-2.536,5.039c-0.332,0.651-0.673,1.302-1.027,1.954
				c-0.771,1.466-1.588,2.955-2.426,4.455c-0.418,0.749-0.848,1.5-1.278,2.261c-0.431,0.761-0.873,1.52-1.323,2.293
				c-2.02,3.475-4.192,7.027-6.496,10.677c-0.045,0.054-0.089,0.121-0.122,0.176c-4.621,7.29-9.804,14.945-15.54,23.007
				c-1.157,1.621-2.327,3.264-3.541,4.918c-1.036,1.457-2.116,2.923-3.209,4.412c-0.617,0.849-1.246,1.698-1.874,2.559
				c-5.128,6.926-10.599,14.14-16.433,21.661c-0.685,0.882-1.357,1.753-2.018,2.626c-0.661,0.86-1.313,1.72-1.954,2.569
				c-0.65,0.86-1.289,1.709-1.906,2.547c-0.629,0.848-1.247,1.676-1.853,2.515c-1.842,2.503-3.607,4.962-5.294,7.378
				c-0.561,0.804-1.114,1.6-1.654,2.394c-2.747,3.97-5.282,7.83-7.643,11.569c-0.474,0.749-0.938,1.5-1.389,2.238
				c-0.409,0.651-0.795,1.291-1.18,1.929c-0.309,0.497-0.619,1.005-0.905,1.501c-3.971,6.628-7.356,12.904-10.235,18.893
				c-0.418,0.871-0.828,1.742-1.235,2.602c-0.055,0.111-0.111,0.232-0.154,0.342c-0.386,0.85-0.772,1.687-1.148,2.525
				c-0.143,0.331-0.286,0.651-0.429,0.982c-0.74,1.709-1.445,3.398-2.118,5.062c-0.397,0.993-0.782,1.963-1.147,2.934
				c-0.32,0.861-0.628,1.709-0.937,2.56c-0.066,0.175-0.131,0.341-0.187,0.517c-0.233,0.651-0.453,1.29-0.673,1.93
				c-0.277,0.817-0.542,1.622-0.794,2.416c-0.486,1.489-0.928,2.956-1.345,4.401c-0.067,0.198-0.122,0.386-0.166,0.584
				c-0.198,0.705-0.396,1.4-0.574,2.084c-0.176,0.662-0.353,1.323-0.507,1.975c-0.418,1.644-0.794,3.264-1.125,4.864
				c-0.319,1.488-0.606,2.966-0.86,4.433c-0.133,0.727-0.255,1.456-0.365,2.184c-0.121,0.716-0.23,1.444-0.331,2.161
				c-0.331,2.261-0.583,4.489-0.783,6.683c-0.054,0.596-0.11,1.192-0.155,1.788c-0.055,0.673-0.098,1.355-0.142,2.029
				c-0.355,5.316-0.398,10.489-0.265,15.617c0.01,0.376,0.021,0.75,0.032,1.125c0.673,20.967,4.688,42.043,29.491,61.642
				c2.978,2.338,11.856,10.443,24.815,18.638h0.012c27.12,17.162,72.108,34.72,117.778,0.43c0.541-0.408,1.07-0.794,1.622-1.192
				l0.022-0.01c0,0,0,0,0.01-0.022c19.742-14.259,44.525-22.785,66.979-32.326c0.012,0,0.012-0.011,0.024-0.011
				c23.502-9.992,44.49-21.098,54.449-41.061c4.28-8.57,9.629-16.763,15.706-24.859c8.99-11.989,19.587-23.724,30.65-36.02
				c2.625-2.913,5.282-5.858,7.941-8.847l0.022-0.01l0.011-0.011c15.561-17.437,31.52-36.319,44.909-58.85
				c32.68-54.925,68.248-50.26,79.851-26.548C1477.385,1048.199,1458.262,1102.627,1446.307,1132.528z"/>
			<polygon style="fill:#E4EBF9;" points="655.692,1606.086 804.649,1541.699 674.139,1277.793 529.788,1313.007 			"/>
			<path style="fill:#0B0755;" d="M276.508,1842.851c4.407-19.567-66.689-87.431-90.936-190.547
				c-27.21-115.715-8.235-266.959-8.661-270.342c47.094-10.158,381.262-81.806,381.262-81.806l2.47,5.305v0.013l0.01,0.021
				l4.511,9.772v0.022h-0.012v0.01l118.132,255.619v0.022l0.022,0.011l8.934,19.345l8.15,17.614L276.508,1842.851z"/>
			<path style="fill:#0B0755;" d="M634.953,1323.842c-4.697,4.154-11.872,3.715-16.027-0.981c-4.154-4.697-3.715-11.872,0.98-16.027
				c4.697-4.156,11.873-3.717,16.027,0.981C640.089,1312.51,639.649,1319.686,634.953,1323.842z"/>
		</g>
		<path style="fill:#F9A58F;" d="M722.594,1218.426c30.182-46.821,107.687-113.466,178.089-158.414
			c43.881-28.008,89.301-74.658,105.802-93.585c12.953-14.885,58.504-79.245,75.292-83.983c9.89-2.759,32.638,24.981,35.083,40.51
			c5.265,33.289-19.089,74.368-67.176,136.407c-45.836,59.122-52.338,93.989-51.477,126.83c0.023,0.757,0.051,1.494,0.071,2.251
			L722.594,1218.426z"/>
	</g>
	<path style="clip-path:url(#SVGID_00000146493569543508566090000014954398451319923093_);fill:#FF6760;" d="M1450.008,622.922
		c-142.646-56.378-173.312,134.703-173.312,134.703s-182.419-64.62-201.267,87.6c-18.849,152.221,368.327,193.895,368.327,193.895
		S1592.653,679.299,1450.008,622.922z"/>
	<path style="clip-path:url(#SVGID_00000146493569543508566090000014954398451319923093_);fill:#F97A7A;" d="M1424.949,664.555
		c-1.474,14.394,26.663,15.335,25.729,35.184c-1.045,22.206-2.324,38.511,8.529,35.237c18.582-5.606,28.549-47.581,11.42-66.614
		C1453.497,649.329,1427.771,636.992,1424.949,664.555z"/>
</g>
</svg>
